<?xml version="1.0" encoding="utf8"?>
<!DOCTYPE svg PUBLIC "-//W3C//DTD SVG 1.1//EN" "http://www.w3.org/Graphics/SVG/1.1/DTD/svg11.dtd">
<svg enable-background="new 0 0 591.59 106.45" viewBox="0 0 591.59 106.45" xml:space="preserve" xmlns="http://www.w3.org/2000/svg">

	<path d="m589.454,54.183-4.273.534 .347-1.201c0,0 .973-3.309-4.281-3.309s-3.892,1.751-3.892,1.751l-3.114-1.362c0,0-1.751.389-2.335,1.362s-3.503.584-3.503.584l-3.503-1.557-.194-2.335-1.946-.389-1.362-17.709-3.503,1.167 .778,9.341h1.168l.389,7.395-1.557.583-.584-1.167-1.167-15.179-3.503.389 .194,7.395 .778.778 .389,8.952-2.919.584-8.757-1.167-.39,2.725-2.141.389-.389,3.892-.195,4.67-3.697,1.362-1.946-.778h-1.557l.974-3.114 1.362-1.557-.584-1.167-1.362-1.167h-8.174l-1.167-20.628h.778l-.39-10.703-5.449-.195 .39,10.704 2.725.194-.194,20.044-6.423.195-1.751-20.239 1.168-.389-.39-10.703-5.644.194 .39,11.093 2.335-.195 .194,20.239h-8.952l-.583-7.979h1.362v-7.395h-3.893v7.006l.973.389-.389,8.173-2.919-.389v-5.254h-3.697v-2.53h.973v-7.59h-4.281l-.39,5.06-1.557-1.557-.584-25.493-.389,25.299-2.919,3.114-.39-2.919h-4.865l.194,3.503h-3.892v-2.53h-13.233v-3.308h-4.281v4.865l-2.335.583-1.558.195v-5.06h-4.086v6.617l-3.503-.194-1.558.778-5.254.584v-1.362h-1.168v1.557h-4.865v-1.752h-1.167v2.53l-6.422.584v-11.677l1.167-.195-.389-9.925h-2.53l-.973,1.167v9.146l.584.779-.195,10.508-3.697.584v-10.896l.974-.194-.195-10.12-2.529.194-.195,9.925 .779.778-.584,9.341-1.946.584v1.167l-4.476.778-.195-11.676 1.362-.389v-8.562l-3.308.194-.974.779h-2.529l-.779,18.293h-3.113v-17.903h-1.362v-1.168h-.973v-2.53h-1.752v-2.53h-2.529v-1.751h-1.168v-1.557h-1.362v-2.725h-3.113v-1.557h-9.342l-3.503,4.865v5.254h-7.59v-1.945h-17.904v1.751h-4.086l-1.362,1.751-2.53.194-.584,1.751-2.919-.194v22.769h-7.784v-4.476h-1.362v-5.06h-1.557v-4.281l-3.989-3.989v-2.043h-2.238v1.946l-3.406,3.406v4.768h-17.027v-34.64h-2.335v-4.086h-5.255v-4.866c0,0-2.529-.584-7.2-.584s-6.032,1.168-6.032,1.168l-.39,4.281h-4.671v3.697h-2.529v27.05h-.973v7.784h-4.088v-2.725h-1.751v-19.46h-1.557l-1.946-1.946h-4.476l-1.46,1.46h-2.432v3.6h-5.839v7.006h-1.167v-3.114h-8.758v1.362h-7.979v4.476h-1.557v8.757h-4.671v-11.48h-3.698v-1.167h-4.67v1.167h-3.697v4.281h-5.449v2.141h-3.114v-28.996l-.974-.389v-2.92l-.583-4.086-2.53-1.751-.389-1.363h-2.725v1.362l-1.362.194-.584,11.287-1.751-2.724v-4.475h-2.919v4.476l-5.255,9.34-1.168.195v9.536h-8.757l.194-2.53-1.751-.195v-5.06h-3.503v4.67h-2.335v3.114h-5.369l-.151-13.352-4.157,4.851 3.208-.429 .101,8.931h-4.335v-1.946h-1.751v-6.033h-3.892v5.644h-2.335v2.53h-1.557v1.823c-1.344.935-5.286,3.631-7.162,4.466-1.729.775-5.41,2.526-7.326,3.441h-4.584v-1.557h-5.449v1.557h-3.698v4.865c0,0-9.536-3.308-14.206-4.67s-15.568-3.503-15.568-3.503l-.195-3.892h-5.254l-9.146-3.309h-8.757v1.946c0,0-33.862-6.617-40.089-7.59-2.54-.397-7.475-.988-12.43-1.549l-2.241-1.146c-6.547-3.367-11.85-6.238-11.86-6.245l-.477.882c.005.002 5.261,2.848 11.768,6.195-6.151-.683-11.616-1.25-11.616-1.25v86.6h591.212l.227-54.403-2.137,2.136zm-427.986-34.833 .724-.843 .008.745-.732.098zm-121.42,8.001 3.804.576-.127,6.285-3.748-1.464 .071-5.397zm-.086,6.465 3.74,1.461-.097,4.774c-1.243-.466-2.485-.934-3.708-1.396l.065-4.839zm-.079,5.903 3.701,1.392-.009.439c-1.206-.361-2.442-.735-3.702-1.118l.01-.713zm-.023,1.753 3.695,1.114-.049,2.399-3.688-.346 .042-3.167zm-5.575-15.389 3.804.576-.068,5.323-3.764-1.48 .028-4.419zm-.035,5.491 3.757,1.476-.062,4.864-3.727-1.427 .032-4.913zm-.039,5.983c1.187.457 2.437.935 3.72,1.422l-.011.857c-1.225-.374-2.466-.756-3.715-1.142l.006-1.137zm-.013,2.181c1.248.385 2.487.766 3.709,1.139l-.048,3.763-3.688-.576 .027-4.326zm-5.56-14.576 3.573.691-.074,3.811-.554-.22c-.916-.363-1.932-.793-3.021-1.274l.076-3.008zm-.104,4.086c.956.418 1.859.8 2.68,1.126 .292.116.593.235.902.358l-.095,4.902c-1.352-.529-2.569-1.014-3.612-1.44l.125-4.946zm-.152,6.015c1.058.429 2.278.913 3.619,1.437l-.025,1.305-3.634-1.132 .04-1.61zm-.067,2.648 3.64,1.133-.09,4.674-3.688-.346 .138-5.461zm-6.593-13.787 4.61.807-.029,2.219c-1.459-.673-3.006-1.409-4.587-2.177l.006-.849zm-.012,1.956c1.583.766 3.125,1.496 4.58,2.162l-.065,5.038c-1.383-.592-2.925-1.271-4.547-1.999l.032-5.201zm-.04,6.293c1.63.729 3.165,1.402 4.541,1.986l-.024,1.838-1.803-.566-2.729-.86 .015-2.398zm-16.199,8.925-4.149-.23 .067-5.794 4.164,1.476-.082,4.548zm.1-5.605-4.17-1.479 .057-4.855c1.201.389 2.616.846 4.203,1.356l-.09,4.978zm.109-6.021-4.21-1.359 .062-5.32c1.164.556 2.606,1.244 4.232,2.014l-.084,4.665zm.103-5.762-4.238-2.02 .007-.649 4.265.808-.034,1.861zm6.603,17.964-4.61-.346v-3.99l4.61,1.634v2.702zm0-3.765-4.61-1.635v-5.078l4.61,1.477v5.236zm0-6.285-4.61-1.478v-4.388l4.61,2.163v3.703zm0-4.805-4.61-2.166v-2.228l4.61.692v3.702zm7.146,15.085-4.726-.23-.023-1.852 4.756,1.686-.007.396zm.028-1.452-4.79-1.698-.066-5.341 4.961,1.576-.105,5.463zm.126-6.505-4.994-1.587-.042-3.387c1.709.792 3.427,1.579 5.087,2.331l-.051,2.643zm.072-3.731c-1.676-.76-3.406-1.556-5.122-2.351l-.06-4.863 2.158.422 3.126,1.553-.102,5.239zm1.89,5.4c1.489.471 3.002.947 4.525,1.424l-.072,5.555-.633-.049-3.855-1.367 .035-5.563zm22.442,21.058h-6.652v-1.725l-13.798.493-.247-5.667c0,0 8.378.986 11.088,1.232s9.609,1.232 9.609,1.232v4.435zm4.949-10.966-4.034-.577 .045-2.299c1.389.413 2.725.805 4,1.175l-.011,1.701zm.018-2.739c-1.272-.37-2.605-.762-3.987-1.173l.006-.328 3.981,1.482v.019zm.007-1.083-3.967-1.478 .093-4.752 3.905,1.521-.031,4.709zm.039-5.778-3.892-1.516 .139-7.096 3.803,1.038-.05,7.574zm5.007,10.176-3.688-.115 .035-1.755c1.309.375 2.537.72 3.67,1.031l-.017.839zm.052-2.512c-1.151-.424-2.381-.879-3.665-1.354l.092-4.66 3.667,1.424-.094,4.59zm.116-5.654-3.668-1.425 .158-7.929 3.688.691-.178,8.663zm4.788,8.627-3.573-.345v-.585c1.384.369 2.585.672 3.573.897v.033zm.017-1.164-3.589-1.318v-4.601l3.653,1.416-.064,4.503zm.079-5.569-3.668-1.422v-9.134l3.803,1.038-.135,9.518zm39.331-1.046 1.559.41 .164,2.79-1.805-.492 .082-2.708zm-5.333,8.697-2.051,1.805v-7.712l2.133.328-.082,5.579zm.164-7.302-2.543-.328-.164-2.215h2.708v2.543zm3.528,8.123h-2.461l.082-6.482 2.461.493-.082,5.989zm.164-7.139-2.625-.492 .246-2.625 2.543.492-.164,2.625zm1.067,7.056 .082-5.333 1.969.656 .247,4.594-2.298.083zm5.168.247-1.641.164v-4.677l1.887.41-.246,4.103zm-1.476-5.99-.164-3.2 2.133.492 .082,3.364-2.051-.656zm5.087,1.641-1.969-.492 .246-3.692 1.887.574-.164,3.61zm1.312.574 .082-3.774 1.723.574 .082,4.021-1.887-.821zm30.343,4.357h-1.127l1.127-.432v.432zm11.676,4.865-1.946-.389 .194-2.53h-1.946v-2.335h-4.865v-1.214l1.748-.642c2.896-1.054 5.378-2.334 6.815-3.135v10.245zm0-11.393c-1.271.73-3.958,2.179-7.157,3.341-1.34.487-2.662.98-3.863,1.435h-.656v.249l-2.53.972v-1.999h-1.362v-.22c2.069-.585 5.543-1.61 8.832-2.776 3.127-1.11 5.419-2.126 6.737-2.752v1.75zm0-2.859c-1.177.575-3.596,1.686-7.071,2.917-3.117,1.105-6.416,2.087-8.497,2.68v-2.948c1.847-.732 5.86-2.424 8.86-4.423 3.129-2.088 5.722-4.559 6.708-5.541v7.315zm0-8.163-.293-.278c-.004.006-3.087,3.249-6.97,5.835-2.708,1.809-6.361,3.389-8.305,4.175v-1.708c1.969-.941 5.423-2.583 7.063-3.318 2.481-1.118 7.781-4.879 7.797-4.888l-.122-.172h.83v.354zm15.308,18.865-3.256-.068v2.442h-1.085v2.035l-3.188-.068v-7.054c0,0 .136-2.917 1.832-4.273 .434-.348.845-.617 1.218-.83l4.479,6.308v1.508zm0-3.233-3.569-5.027c.57-.231.924-.286.924-.286l2.645-.067v5.38zm242.676,4.77-.05-10.547 1.337-.049 .148,10.596h-1.435z"></path>

</svg>
