<?xml version="1.0" encoding="utf8" standalone="no"?>
<svg viewBox="0 0 372.3862 101.32129" xmlns="http://www.w3.org/2000/svg">
<defs>
<linearGradient gradientUnits="userSpaceOnUse" id="linearGradient2102" x2="0" y1="403.97999" y2="596.04789">
<stop offset="0" stop-color="#d9e01b" stop-opacity=".49804"/>
<stop offset=".44954" stop-color="#dd2016" stop-opacity=".97419"/>
<stop offset="1" stop-opacity="0"/>
</linearGradient>
</defs>
<g transform="matrix(.35856,0,0,.35856,43.9122,-101.9104)">
<path d="m-122.46777,284.2204h1038.5575v280.1933h-1038.5575z" fill="url(#linearGradient2102)"/>
<path d="m356.501,336.93621v69.39709h-31.1513v26.37863h-50.30644v31.1513h-43.08295v-110.2227h-62.30259c.04107-.38214.06449-.76792.06449-1.16092 0-5.94873-4.82201-5.8386-10.77074-5.8386s-10.83523-.11013-10.83523,5.8386c0,.393.02343.77878.0645,1.16092h-50.30644v91.00306h-33.53763v23.9923h-43.14745v-98.22655h-43.08295v40.76112h-19.15514c0-2.64388-5.38645-4.83718-11.99615-4.83716s-11.93166,2.19328-11.93166,4.83716h-16.76881v81.39324h-40.69661v74.23425h1036.95764v-71.84792h-38.37479v-47.85561h-21.54148v47.85561h-23.9278v-50.30644h-33.53763v50.30644h-23.92781v-79.00691h-12.44762c.29546-.76499.45147-1.56013.45147-2.38633 0-5.28776-6.45086-3.68485-14.38248-3.68487s-14.31801-1.60289-14.31799,3.68487c0,.8262.15601,1.62134.45147,2.38633h-14.83395v50.30644h-62.30259v28.70047h-11.93166v-124.54069h-17.0268c.13106-.37294.25799-.76676.25799-1.16092 0-3.30485-5.61202-1.65308-11.56074-1.6531s-9.98074-1.65175-9.98074,1.6531c0,.39416.06243.78798.19349,1.16092h-14.57597v124.54069h-45.53378v-126.92702h-16.76882v126.92702h-21.54147v-43.08295h-16.76882v-2.38633h-16.76881v-31.1513h-16.76881c0-2.64388-3.75762-4.77268-8.38441-4.77266s-8.31993,2.12878-8.31991,4.77266h-16.76882v35.92396h-4.83715v-19.15514h-47.85562v-28.76497h-2.38633v-69.39709h-11.99615z"/>
<path d="m598.29108,377.28171h3.94997v2.76498h-3.94997z" fill="#fff"/>
<path d="m598.40448,382.31613h3.94997v2.76498h-3.94997z" fill="#fff"/>
<path d="m626.95898,378.7869h3.94997v2.76498h-3.94997z" fill="#fff"/>
<path d="m626.98022,383.01291h3.94997v2.76498h-3.94997z" fill="#fff"/>
<path d="m627.0329,387.24954h3.94997v2.76498h-3.94997z" fill="#fff"/>
<path d="m613.6521,401.34766h3.94997v2.76498h-3.94997z" fill="#fff"/>
<path d="m599.98737,405.76917h3.94997v2.76498h-3.94997z" fill="#fff"/>
<path d="m613.72595,409.81027h3.94997v2.76498h-3.94997z" fill="#fff"/>
<path d="m635.30524,446.12021h3.94997v2.76498h-3.94997z" fill="#fff"/>
<path d="m635.37909,454.58282h3.94997v2.76498h-3.94997z" fill="#fff"/>
<path d="m601.28589,434.7804h3.94997v2.76498h-3.94997z" fill="#fff"/>
<path d="m601.3598,443.24304h3.94997v2.76498h-3.94997z" fill="#fff"/>
<path d="m607.15137,419.72589h3.94997v2.76498h-3.94997z" fill="#fff"/>
<path d="m633.95789,402.24988h3.94997v2.76498h-3.94997z" fill="#fff"/>
<path d="m627.94958,422.51859h3.94997v2.76498h-3.94997z" fill="#fff"/>
<path d="m601.87244,460.97928h3.94997v2.76498h-3.94997z" fill="#fff"/>
<path d="m601.89362,465.20529h3.94997v2.76498h-3.94997z" fill="#fff"/>
<path d="m628.48346,465.59631h3.94997v2.76498h-3.94997z" fill="#fff"/>
<path d="m627.48468,405.25787h3.94997v2.76498h-3.94997z" fill="#fff"/>
<path d="m618.31677,422.58328h3.94997v2.76498h-3.94997z" fill="#fff"/>
<path d="m634.79254,422.32309h3.94997v2.76498h-3.94997z" fill="#fff"/>
<path d="m757.97528,456.12784h3.94997v2.76498h-3.94997z" fill="#fff"/>
<path d="m730.72308,433.75659h3.94997v2.76498h-3.94997z" fill="#fff"/>
<path d="m736.82434,463.44931h3.94997v2.76498h-3.94997z" fill="#fff"/>
<path d="m746.99304,445.95908h3.94997v2.76498h-3.94997z" fill="#fff"/>
<path d="m757.97528,432.94308h3.94997v2.76498h-3.94997z" fill="#fff"/>
<path d="m736.4176,486.63409h3.94997v2.76498h-3.94997z" fill="#fff"/>
<path d="m807.19214,459.38181h3.94997v2.76498h-3.94997z" fill="#fff"/>
<path d="m822.64862,476.46536h3.94997v2.76498h-3.94997z" fill="#fff"/>
<path d="m806.7854,482.15985h3.94997v2.76498h-3.94997z" fill="#fff"/>
<path d="m866.98444,466.29663h3.94997v2.76498h-3.94997z" fill="#fff"/>
<path d="m862.51019,455.31433h3.94997v2.76498h-3.94997z" fill="#fff"/>
<path d="m865.76416,484.1936h3.94997v2.76498h-3.94997z" fill="#fff"/>
<path d="m672.5578,480.93961h3.94997v2.76498h-3.94997z" fill="#fff"/>
<path d="m699.40332,480.53287h3.94997v2.76498h-3.94997z" fill="#fff"/>
<path d="m684.35358,491.51511h3.94997v2.76498h-3.94997z" fill="#fff"/>
<path d="m636.35699,515.51337h3.94997v2.76498h-3.94997z" fill="#fff"/>
<path d="m715.26654,528.12262h3.94997v2.76498h-3.94997z" fill="#fff"/>
<path d="m733.16357,511.85263h3.94997v2.76498h-3.94997z" fill="#fff"/>
<path d="m822.64862,523.24164h3.94997v2.76498h-3.94997z" fill="#fff"/>
<path d="m873.89917,508.19189h3.94997v2.76498h-3.94997z" fill="#fff"/>
<path d="m779.93976,535.44409h3.94997v2.76498h-3.94997z" fill="#fff"/>
<path d="m780.7533,513.88641h3.94997v2.76498h-3.94997z" fill="#fff"/>
<path d="m536.70325,424.80804h3.94997v2.76498h-3.94997z" fill="#fff"/>
<path d="m437.45618,435.79034h3.94997v2.76498h-3.94997z" fill="#fff"/>
<path d="m454.5397,435.38361h3.94997v2.76498h-3.94997z" fill="#fff"/>
<path d="m450.4722,454.09409h3.94997v2.76498h-3.94997z" fill="#fff"/>
<path d="m432.57516,452.06033h3.94997v2.76498h-3.94997z" fill="#fff"/>
<path d="m495.62146,470.77087h3.94997v2.76498h-3.94997z" fill="#fff"/>
<path d="m340.64966,426.84186h3.94997v2.76498h-3.94997z" fill="#fff"/>
<path d="m342.68338,464.26282h3.94997v2.76498h-3.94997z" fill="#fff"/>
<path d="m391.08664,464.26282h3.94997v2.76498h-3.94997z" fill="#fff"/>
<path d="m127.91928,425.62155h3.94997v2.76498h-3.94997z" fill="#fff"/>
<path d="m159.64581,429.68912h3.94997v2.76498h-3.94997z" fill="#fff"/>
<path d="m135.24078,448.80634h3.94997v2.76498h-3.94997z" fill="#fff"/>
<path d="m142.5623,448.3996h3.94997v2.76498h-3.94997z" fill="#fff"/>
<path d="m152.3243,448.3996h3.94997v2.76498h-3.94997z" fill="#fff"/>
<path d="m195.4398,422.36755h3.94997v2.76498h-3.94997z" fill="#fff"/>
<path d="m192.18581,450.84009h3.94997v2.76498h-3.94997z" fill="#fff"/>
<path d="m126.29229,373.55753h3.94997v2.76498h-3.94997z" fill="#fff"/>
<path d="m189.33856,371.93054h3.94997v2.76498h-3.94997z" fill="#fff"/>
<path d="m159.64581,396.33557h3.94997v2.76498h-3.94997z" fill="#fff"/>
<path d="m118.56401,393.08157h3.94997v2.76498h-3.94997z" fill="#fff"/>
<path d="m210.89635,380.47229h3.94997v2.76498h-3.94997z" fill="#fff"/>
<path d="m167.78081,362.98206h3.94997v2.76498h-3.94997z" fill="#fff"/>
<path d="m212.52335,433.75659h3.94997v2.76498h-3.94997z" fill="#fff"/>
<path d="m206.01529,404.87732h3.94997v2.76498h-3.94997z" fill="#fff"/>
<path d="m184.05081,395.92883h3.94997v2.76498h-3.94997z" fill="#fff"/>
<path d="m204.79504,389.42084h3.94997v2.76498h-3.94997z" fill="#fff"/>
<path d="m188.93181,382.09927h3.94997v2.76498h-3.94997z" fill="#fff"/>
<path d="m-66.10055,432.12961h3.94997v2.76498h-3.94997z" fill="#fff"/>
<path d="m-9.56228,433.34985h3.94997v2.76498h-3.94997z" fill="#fff"/>
<path d="m-19.73105,457.75482h3.94997v2.76498h-3.94997z" fill="#fff"/>
<path d="m-49.01705,450.02658h3.94997v2.76498h-3.94997z" fill="#fff"/>
<path d="m-32.34029,430.50259h3.94997v2.76498h-3.94997z" fill="#fff"/>
<path d="m-65.69382,458.97507h3.94997v2.76498h-3.94997z" fill="#fff"/>
<path d="m-58.77907,485.41385h3.94997v2.76498h-3.94997z" fill="#fff"/>
<path d="m-25.0188,480.1261h3.94997v2.76498h-3.94997z" fill="#fff"/>
<path d="m3.45373,454.90756h3.94997v2.76498h-3.94997z" fill="#fff"/>
<path d="m-18.5108,445.55234h3.94997v2.76498h-3.94997z" fill="#fff"/>
<path d="m1.82674,419.52029h3.94997v2.76498h-3.94997z" fill="#fff"/>
<path d="m2.64024,432.94308h3.94997v2.76498h-3.94997z" fill="#fff"/>
<path d="m293.37689,449.93512h3.94997v2.76498h-3.94997z" fill="#fff"/>
<path d="m313.1055,449.93512h3.94997v2.76498h-3.94997z" fill="#fff"/>
<path d="m290.91083,465.96463h3.94997v2.76498h-3.94997z" fill="#fff"/>
<path d="m203.36528,475.82892h3.94997v2.76498h-3.94997z" fill="#fff"/>
<path d="m78.82862,464.7316h3.94997v2.76498h-3.94997z" fill="#fff"/>
<path d="m24.57504,509.12085h3.94997v2.76498h-3.94997z" fill="#fff"/>
<path d="m210.76346,537.48071h3.94997v2.76498h-3.94997z" fill="#fff"/>
<path d="m113.35365,517.75214h3.94997v2.76498h-3.94997z" fill="#fff"/>
<path d="m302.00812,530.08246h3.94997v2.76498h-3.94997z" fill="#fff"/>
<path d="m345.1644,546.11194h3.94997v2.76498h-3.94997z" fill="#fff"/>
<path d="m361.19391,509.12085h3.94997v2.76498h-3.94997z" fill="#fff"/>
<path d="m478.33228,515.28607h3.94997v2.76498h-3.94997z" fill="#fff"/>
<path d="m426.54477,521.45123h3.94997v2.76498h-3.94997z" fill="#fff"/>
<path d="m562.17877,532.54858h3.94997v2.76498h-3.94997z" fill="#fff"/>
<path d="m522.72156,511.58698h3.94997v2.76498h-3.94997z" fill="#fff"/>
<path d="m535.05194,461.03244h3.94997v2.76498h-3.94997z" fill="#fff"/>
<path d="m662.05469,547.34497h3.94997v2.76498h-3.94997z" fill="#fff"/>
<path d="m190.54382,347.74261c-.19112,1.93685 1.20161,12.20468 1.23303,12.33035" fill="none" stroke="#000" stroke-width="2.78893"/>
<path d="m-3.04284,365.0051v9.86429" fill="none" stroke="#000" stroke-width="2.78893"/>
<path d="m126.42594,348.97564v8.63124" fill="none" stroke="#000" stroke-width="2.78893"/>
<path d="m114.09559,347.74261v9.86427" fill="none" stroke="#000" stroke-width="2.78893"/>
<path d="m212.73846,350.20867v6.16519" fill="none" stroke="#000" stroke-width="2.78893"/>
<path d="m599.91178,367.47118v2.46608" fill="none" stroke="#000" stroke-width="2.78893"/>
<path d="m725.68145,410.62744v7.39821" fill="none" stroke="#000" stroke-width="2.78893"/>
<path d="m-72.09285,406.92833v4.93214" fill="none" stroke="#000" stroke-width="2.78893"/>
<path d="m250.96259,458.71586v11.09732" fill="none" stroke="#000" stroke-width="2.78893"/>
<path d="m574.01802,490.77477 1.23303,12.33037" fill="none" stroke="#000" stroke-width="2.78893"/>
<path d="m559.22159,489.54174v13.5634" fill="none" stroke="#000" stroke-width="2.78893"/>
</g>
</svg>
