<?xml version="1.0"?><svg width="1000" height="1000" xmlns="http://www.w3.org/2000/svg">
 <title>High Resolution Gear</title>

 <metadata id="metadata4083">image/svg+xml</metadata>
 <g>
  <title>Layer 1</title>
  <g id="layer1">
   <path fill="#3f3f3f" stroke-width="2" stroke-linecap="round" stroke-linejoin="round" stroke-miterlimit="4" stroke-dashoffset="0" id="path4050" d="m457.674011,1l-20.769012,118.302002l0.079987,0.080002c-25.385986,4.147995 -49.947998,10.79599 -73.408997,19.649994l0,-0.078995l-77.084991,-92.101604l-72.451004,41.857105l41.138,112.790489l0.160004,0.07901c-19.641998,16.123993 -37.645004,34.190002 -53.759003,53.839996l-0.080002,-0.240005l-112.790489,-41.138992l-41.857105,72.450989l92.101604,77.165009c-8.839005,23.44101 -15.429001,47.966003 -19.570999,73.32901l-0.080002,-0.07901l-118.302002,20.769012l0,83.713989l118.302002,20.768982l0.080002,-0.078979c4.141998,25.362976 10.731995,49.888 19.570999,73.330017l-92.101604,77.164001l41.857105,72.450989l112.790489,-41.138l0.080002,-0.241028c16.113998,19.649048 34.117004,37.717041 53.759003,53.838989l-0.160004,0.079041l-41.138,112.791016l72.451004,41.856995l77.084991,-92.101013l0,-0.078979c23.460999,8.852966 48.02301,15.501953 73.408997,19.649963l-0.079987,0.078979l20.769012,118.30304l83.633972,0l20.769043,-118.30304l-0.080017,-0.078979c25.382019,-4.136963 49.950989,-10.72998 73.409973,-19.570984l77.164001,92.10199l72.450989,-41.856995l-41.217957,-112.791016c19.597961,-16.08197 37.59198,-34.085999 53.679993,-53.679016l112.869995,41.138l41.776978,-72.450989l-92.020996,-77.164001c8.841003,-23.445007 15.507019,-47.963013 19.650024,-73.329956l118.302979,-20.689026l0,-83.713989l-118.302979,-20.769012c-4.143982,-25.338989 -10.817993,-49.82901 -19.650024,-73.25l92.020996,-77.164001l-41.776978,-72.451004l-112.869995,41.138c-16.088013,-19.592987 -34.080994,-37.597 -53.679993,-53.679001l41.217957,-112.790695l-72.450989,-41.857197l-77.164001,92.101902c-23.458984,-8.839996 -48.027954,-15.434006 -73.409973,-19.570999l0.080017,-0.079002l-20.769043,-118.302451l-83.633972,0l0,-0.00054l0,-0.00001zm41.856995,203.694c162.852966,0 294.916992,131.984009 294.916992,294.837006c0,162.852966 -132.064026,294.836975 -294.916992,294.836975c-162.852997,0 -294.837006,-131.984009 -294.837006,-294.836975c0,-162.852997 131.984009,-294.837006 294.837006,-294.837006z"/>
  </g>
 </g>
</svg>